<svg xmlns="http://www.w3.org/2000/svg" viewBox="15 50 180 180"><defs><style>.a{fill:#000;}</style></defs>
<!--<path class="a" d="M207.25,89.21a52.23,52.23,0,0,0-24.51,6.07c.34.58.66,1.17,1,1.75a50.51,50.51,0,1,1,0,89.4c-.33.59-.66,1.18-1,1.75a52.52,52.52,0,1,0,24.52-99Z"></path>-->
<path class="a" d="M106.23,59.18a82.55,82.55,0,1,0,82.56,82.55A82.54,82.54,0,0,0,106.23,59.18Zm0,157.84a75.29,75.29,0,1,1,75.3-75.29A75.27,75.27,0,0,1,106.23,217Z"></path><path class="a" d="M56.28,137.14c0,4.31-2.25,7-6.91,7-4.35,0-6.35-2.21-7.18-5.7l4.48-1.17c.55,1.88,1.2,2.84,2.77,2.84s2.19-1,2.19-2.59V127.38h4.65Z"></path><path class="a" d="M73.32,136.82c0,5.22-3.14,7.29-7.27,7.29s-7.18-2.07-7.18-7.29v-9.44h4.67v9.44c0,2,.79,3.26,2.58,3.26s2.53-1.22,2.53-3.26v-9.44h4.67Z"></path><path class="a" d="M85.26,143.84H80.65L75,127.38h5.12l1.2,4.43c.57,2,1.37,5.38,1.67,6.95.31-1.57,1.11-4.89,1.67-6.95l1.2-4.43h5.08Z"></path><path class="a" d="M92.7,143.84V127.38h12.61v3.84H97.22v2.18h4.86v3.79H97.22V140h8.25v3.83Z"></path><path class="a" d="M118.53,143.84l-3.94-5.43c-.77-1-2.11-3.11-2.56-3.85a42.47,42.47,0,0,1,.14,4.25v5H107.8V127.38h4l3.62,4.87c.78,1,2.2,3.19,2.57,3.88-.11-.73-.14-2.92-.14-4.26v-4.49h4.38v16.46Z"></path><path class="a" d="M133.49,131.36v12.48h-4.56V131.36h-4.62v-4H138.1v4Z"></path><path class="a" d="M154.52,136.82c0,5.22-3.14,7.29-7.27,7.29s-7.17-2.07-7.17-7.29v-9.44h4.65v9.44c0,2,.8,3.26,2.6,3.26s2.53-1.22,2.53-3.26v-9.44h4.66Z"></path><path class="a" d="M163.48,144.11a13.15,13.15,0,0,1-6.93-2l2.21-3.58a10,10,0,0,0,4.82,1.65c1.62,0,2.13-.28,2.13-1.06,0-.61-.61-1-2.8-1.51-3.94-.94-5.88-2-5.88-5.29,0-3.1,2.54-5.2,6.49-5.2a10.85,10.85,0,0,1,6.57,1.9l-2.21,3.58a7.87,7.87,0,0,0-4.58-1.55c-1.4,0-1.7.42-1.7,1s.58.9,2.71,1.39c4.13,1,6,2.23,6,5.34C170.29,142.56,167.43,144.11,163.48,144.11Z"></path><path class="a" d="M65.08,163.09V146.63h4.61v12.49H77v4Z"></path><path class="a" d="M85.08,157v6.14H80.46V157l-6.08-10.39h5.26l1.27,2.49a34.14,34.14,0,0,1,1.89,4.26,32.37,32.37,0,0,1,1.88-4.26L86,146.63h5.22Z"></path><path class="a" d="M101.64,163.09,99,157.54H97.12v5.55H92.63V146.63H100c3.86,0,6.42,1.48,6.42,5.36a4.88,4.88,0,0,1-3,4.82l3.29,6.28Zm-1.76-12.75H97.12v3.6H99.8c1.5,0,2.07-.63,2.07-1.83S101.3,150.34,99.88,150.34Z"></path><path class="a" d="M109,163.09V146.63h4.65v16.46Z"></path><path class="a" d="M130.19,159.09a7,7,0,0,1-6.84,4.26c-4.9,0-7.51-3.62-7.51-8.5,0-5.26,3.11-8.48,7.53-8.48,4,0,5.64,1.76,6.77,4.84L126,152.84c-.55-1.53-1.17-2.5-2.65-2.5-1.9,0-2.73,1.91-2.73,4.51s.81,4.52,2.78,4.52c1.4,0,2.07-.75,2.94-2.32Z"></path><path class="a" d="M142.45,163.09l-.9-2.89h-4.93l-.9,2.89h-4.89l6-16.46h4.6l6,16.46Zm-2.3-7.59c-.57-2.15-.87-3-1.06-4.12-.19,1.13-.5,2-1.07,4.12l-.3,1.08h2.73Z"></path>
<!--<path class="a" d="M203.39,163.05l-.54-1.76h-3l-.55,1.76h-3L200,153h2.81l3.64,10Zm-1.4-4.62c-.35-1.31-.53-1.84-.65-2.51-.11.69-.3,1.23-.64,2.51l-.19.66h1.66Z"></path>-->
<!--<path class="a" d="M214,163.05l-2.39-3.3c-.47-.62-1.29-1.9-1.56-2.35.07.44.08,1.77.08,2.59v3.06h-2.66V153h2.45l2.21,3c.47.63,1.33,1.95,1.56,2.37a24.07,24.07,0,0,1-.09-2.6V153h2.66v10Zm.93-12.83c0,1.27-.71,2.25-1.87,2.25a2.15,2.15,0,0,1-1.28-.36,2.32,2.32,0,0,0-.87-.42c-.33,0-.46.23-.53.74H208.9a2,2,0,0,1,1.88-2.25,2.09,2.09,0,0,1,1.27.35c.42.25.66.42.88.42s.47-.24.53-.73Z"></path>-->
<!--<path class="a" d="M222.15,163.21c-2.72,0-4.63-1.82-4.63-5.16s1.94-5.18,4.66-5.18,4.62,1.82,4.62,5.16S224.87,163.21,222.15,163.21Zm0-7.92c-1.13,0-1.75.92-1.75,2.74s.64,2.76,1.78,2.76,1.74-.92,1.74-2.74S223.28,155.29,222.15,155.29Z"></path>-->
<!--<path class="a" d="M231.68,163.21a8,8,0,0,1-4.22-1.22l1.34-2.17a6.15,6.15,0,0,0,2.94,1c1,0,1.31-.17,1.31-.65s-.38-.61-1.71-.91c-2.41-.57-3.58-1.21-3.58-3.23s1.55-3.16,4-3.16a6.57,6.57,0,0,1,4,1.16l-1.35,2.18a4.72,4.72,0,0,0-2.79-1c-.85,0-1,.26-1,.62s.36.54,1.65.84c2.52.62,3.63,1.36,3.63,3.25C235.82,162.27,234.09,163.21,231.68,163.21Z"></path>-->
<!--<path class="a" d="M198.21,147.21c.15-7,3.48-10.43,8.68-12.72,2.2-1,2.53-1.33,2.53-2.14s-.66-1.42-2.32-1.42a11,11,0,0,0-6.18,2.11l-2.65-4.25a15.64,15.64,0,0,1,8.92-2.71c5.2,0,7.87,2,7.87,5.86,0,2.73-.95,4.4-4.93,6.24-4.19,1.9-5.29,3.12-5.77,4.34h10.85v4.69Z"></path>-->
<!--<path class="a" d="M226.15,147.54a16.41,16.41,0,0,1-8.89-2.53l2.35-4.31a13.73,13.73,0,0,0,6.69,2.05c2.7,0,3.65-1,3.65-2.64s-1-2.44-2.79-2.44a6,6,0,0,0-3.84,1.19l-4.93-1.66.72-10.79h15.15v4.7H223.77l-.18,2.88a9.33,9.33,0,0,1,4.49-.92c4.49,0,7.43,2.26,7.43,6.89C235.51,144.83,232.09,147.54,226.15,147.54Z"></path>-->
</svg>
