<?xml version="1.0" encoding="UTF-8"?>
<svg id="Capa_1" data-name="Capa 1" xmlns="http://www.w3.org/2000/svg" version="1.1" viewBox="0 0 195.8 60">
  <defs>
    <style>
      .cls-1 {
        fill: #00467f;
        stroke-width: 0px;
      }
    </style>
  </defs>
  <g>
    <path class="cls-1" d="M72.9,14v5.4c0,.6-.1,1.1-.4,1.6-.3.4-.6.8-1.1,1s-1.1.4-1.7.4c-1,0-1.8-.3-2.4-.8-.6-.5-.9-1.2-.9-2.1v-5.4h2v5.5c0,.9.4,1.4,1.3,1.4s.7-.1.9-.3c.2-.2.3-.6.3-1.1v-5.4h2Z"/>
    <path class="cls-1" d="M80.7,22.3h-2l-2.9-5.1v5.1h-2v-8.3h2l2.9,5.1v-5.1h2v8.3Z"/>
    <path class="cls-1" d="M83.8,22.3h-2v-8.3h2v8.3Z"/>
    <path class="cls-1" d="M88.1,20l1.6-6h2.2l-2.8,8.3h-2.2l-2.8-8.3h2.2l1.6,6Z"/>
    <path class="cls-1" d="M97.4,18.8h-3.1v2h3.7v1.5h-5.7v-8.3h5.7v1.5h-3.7v1.7h3.1v1.5Z"/>
    <path class="cls-1" d="M101.8,19.3h-1.1v2.9h-2v-8.3h3.2c1,0,1.7.2,2.3.7s.8,1,.8,1.8-.1,1-.3,1.4c-.2.4-.6.7-1.1.9l1.7,3.3h0c0,0-2.1,0-2.1,0l-1.5-2.9ZM100.7,17.8h1.3c.4,0,.7,0,.9-.3.2-.2.3-.5.3-.8s0-.6-.3-.8c-.2-.2-.5-.3-.9-.3h-1.3v2.3Z"/>
    <path class="cls-1" d="M110.3,20.1c0-.3-.1-.5-.3-.7s-.6-.3-1.1-.5c-.5-.2-.9-.3-1.3-.5-1.1-.5-1.6-1.2-1.6-2.2s.1-.9.4-1.2.6-.6,1.1-.8c.5-.2,1-.3,1.6-.3s1.1.1,1.6.3c.5.2.8.5,1.1.9s.4.8.4,1.3h-2c0-.3-.1-.6-.3-.8s-.5-.3-.8-.3-.6,0-.8.2c-.2.2-.3.4-.3.6s.1.4.3.6c.2.2.6.3,1.2.5.6.2,1,.4,1.4.6.9.5,1.3,1.2,1.3,2.1s-.3,1.3-.8,1.7c-.5.4-1.3.6-2.2.6s-1.3-.1-1.8-.4c-.5-.2-1-.6-1.2-1-.3-.4-.4-.9-.4-1.4h2c0,.4.1.8.3,1,.2.2.6.3,1.1.3s.6,0,.8-.2c.2-.1.3-.3.3-.6Z"/>
    <path class="cls-1" d="M115.1,22.3h-2v-8.3h2v8.3Z"/>
    <path class="cls-1" d="M116.2,22.3v-8.3h2.7c.7,0,1.4.2,2,.5.6.3,1,.8,1.4,1.4.3.6.5,1.3.5,2v.4c0,.8-.2,1.4-.5,2s-.8,1.1-1.3,1.4c-.6.3-1.2.5-1.9.5h-2.7ZM118.2,15.5v5.2h.7c.6,0,1-.2,1.3-.6.3-.4.5-1,.5-1.8v-.4c0-.8-.2-1.4-.5-1.8-.3-.4-.8-.6-1.3-.6h-.7Z"/>
    <path class="cls-1" d="M128,20.7h-2.7l-.5,1.5h-2.1l3-8.3h1.9l3,8.3h-2.1l-.5-1.5ZM125.7,19.2h1.8l-.9-2.9-.9,2.9Z"/>
    <path class="cls-1" d="M130.9,22.3v-8.3h2.7c.7,0,1.4.2,2,.5.6.3,1,.8,1.4,1.4.3.6.5,1.3.5,2v.4c0,.8-.2,1.4-.5,2s-.8,1.1-1.3,1.4c-.6.3-1.2.5-1.9.5h-2.7ZM132.9,15.5v5.2h.7c.6,0,1-.2,1.3-.6.3-.4.5-1,.5-1.8v-.4c0-.8-.2-1.4-.5-1.8-.3-.4-.8-.6-1.3-.6h-.7Z"/>
    <path class="cls-1" d="M147.6,22.3h-2l-2.9-5.1v5.1h-2v-8.3h2l2.9,5.1v-5.1h2v8.3Z"/>
    <path class="cls-1" d="M153.4,20.7h-2.7l-.5,1.5h-2.1l3-8.3h1.9l3,8.3h-2.1l-.5-1.5ZM151.1,19.2h1.8l-.9-2.9-.9,2.9Z"/>
    <path class="cls-1" d="M162.6,19.5c0,.6-.2,1.1-.5,1.5-.3.4-.7.8-1.2,1-.5.2-1.1.4-1.8.4-1.1,0-1.9-.4-2.6-1.1-.6-.7-.9-1.7-.9-3v-.4c0-.8.1-1.5.4-2.1.3-.6.7-1.1,1.2-1.4.5-.3,1.1-.5,1.8-.5,1,0,1.8.3,2.4.8.6.5,1,1.3,1,2.2h-2c0-.5-.1-.9-.4-1.1s-.6-.3-1.1-.3-.9.2-1.1.6c-.2.4-.4,1-.4,1.8v.6c0,.9.1,1.5.3,1.9.2.4.6.6,1.1.6s.8-.1,1-.3c.2-.2.4-.6.4-1h2Z"/>
    <path class="cls-1" d="M165.4,22.3h-2v-8.3h2v8.3Z"/>
    <path class="cls-1" d="M173.4,18.3c0,.8-.1,1.5-.4,2.1-.3.6-.7,1.1-1.3,1.4s-1.2.5-1.9.5-1.3-.2-1.9-.5c-.5-.3-1-.8-1.3-1.4-.3-.6-.5-1.3-.5-2.1v-.5c0-.8.1-1.5.4-2.1.3-.6.7-1.1,1.3-1.4s1.2-.5,1.9-.5,1.3.2,1.9.5c.5.3,1,.8,1.3,1.4.3.6.5,1.3.5,2.1v.4ZM171.4,18c0-.8-.1-1.4-.4-1.9-.3-.4-.7-.6-1.2-.6-1,0-1.5.7-1.6,2.2v.6c0,.8.1,1.4.4,1.9.3.4.7.7,1.2.7s.9-.2,1.2-.6c.3-.4.4-1,.4-1.8v-.4Z"/>
    <path class="cls-1" d="M181.1,22.3h-2l-2.9-5.1v5.1h-2v-8.3h2l2.9,5.1v-5.1h2v8.3Z"/>
    <path class="cls-1" d="M186.8,20.7h-2.7l-.5,1.5h-2.1l3-8.3h1.9l3,8.3h-2.1l-.5-1.5ZM184.6,19.2h1.8l-.9-2.9-.9,2.9Z"/>
    <path class="cls-1" d="M191.8,20.7h3.5v1.5h-5.5v-8.3h2v6.7Z"/>
    <path class="cls-1" d="M66.4,33.9v-8.3h2.7c.7,0,1.4.2,2,.5.6.3,1,.8,1.4,1.4.3.6.5,1.3.5,2v.4c0,.8-.2,1.4-.5,2s-.8,1.1-1.3,1.4c-.6.3-1.2.5-1.9.5h-2.7ZM68.4,27.2v5.2h.7c.6,0,1-.2,1.3-.6s.5-1,.5-1.8v-.4c0-.8-.2-1.4-.5-1.8-.3-.4-.8-.6-1.3-.6h-.7Z"/>
    <path class="cls-1" d="M78.7,30.4h-3.1v2h3.7v1.5h-5.7v-8.3h5.7v1.5h-3.7v1.7h3.1v1.5Z"/>
    <path class="cls-1" d="M84.4,32.3h3.5v1.5h-5.5v-8.3h2v6.7Z"/>
    <path class="cls-1" d="M93.2,32.3h-2.7l-.5,1.5h-2.1l3-8.3h1.9l3.1,8.3h-2.1l-.5-1.5ZM91,30.8h1.8l-.9-2.9-.9,2.9Z"/>
    <path class="cls-1" d="M100.4,31.7c0-.3-.1-.5-.3-.7-.2-.2-.6-.3-1.1-.5-.5-.2-.9-.3-1.3-.5-1.1-.5-1.6-1.2-1.6-2.2s.1-.9.4-1.2c.3-.3.6-.6,1.1-.8s1-.3,1.6-.3,1.1.1,1.6.3c.5.2.8.5,1.1.9.3.4.4.8.4,1.3h-2c0-.3-.1-.6-.3-.8-.2-.2-.5-.3-.8-.3s-.6,0-.8.2-.3.4-.3.6.1.4.3.6c.2.2.6.3,1.2.5.6.2,1,.4,1.4.6.9.5,1.3,1.2,1.3,2.1s-.3,1.3-.8,1.7-1.3.6-2.2.6-1.3-.1-1.8-.4c-.5-.2-1-.6-1.2-1-.3-.4-.4-.9-.4-1.4h2c0,.4.1.8.3,1,.2.2.6.3,1.1.3s.6,0,.8-.2c.2-.1.3-.3.3-.6Z"/>
    <path class="cls-1" d="M110.4,32.3h-2.7l-.5,1.5h-2.1l3-8.3h1.9l3,8.3h-2.1l-.5-1.5ZM108.2,30.8h1.8l-.9-2.9-.9,2.9Z"/>
    <path class="cls-1" d="M116.4,31h-1.1v2.9h-2v-8.3h3.2c1,0,1.7.2,2.3.7.6.4.8,1,.8,1.8s-.1,1-.3,1.4c-.2.4-.6.7-1.1.9l1.7,3.3h0c0,0-2.1,0-2.1,0l-1.5-2.9ZM115.3,29.4h1.3c.4,0,.7,0,.9-.3.2-.2.3-.5.3-.8s0-.6-.3-.8-.5-.3-.9-.3h-1.3v2.3Z"/>
    <path class="cls-1" d="M127.1,27.2h-2.5v6.7h-2v-6.7h-2.4v-1.5h6.9v1.5Z"/>
    <path class="cls-1" d="M132.7,30.4h-3.1v2h3.7v1.5h-5.7v-8.3h5.7v1.5h-3.7v1.7h3.1v1.5Z"/>
    <path class="cls-1" d="M138.1,31.7c0-.3-.1-.5-.3-.7-.2-.2-.6-.3-1.1-.5-.5-.2-.9-.3-1.3-.5-1.1-.5-1.6-1.2-1.6-2.2s.1-.9.4-1.2.6-.6,1.1-.8c.5-.2,1-.3,1.6-.3s1.1.1,1.6.3c.5.2.8.5,1.1.9s.4.8.4,1.3h-2c0-.3-.1-.6-.3-.8s-.5-.3-.8-.3-.6,0-.8.2c-.2.2-.3.4-.3.6s.1.4.3.6c.2.2.6.3,1.2.5.6.2,1,.4,1.4.6.9.5,1.3,1.2,1.3,2.1s-.3,1.3-.8,1.7c-.5.4-1.3.6-2.2.6s-1.3-.1-1.8-.4c-.5-.2-1-.6-1.2-1-.3-.4-.4-.9-.4-1.4h2c0,.4.1.8.3,1s.6.3,1.1.3.6,0,.8-.2c.2-.1.3-.3.3-.6Z"/>
    <path class="cls-1" d="M69.7,46h-.7v-7.4l-2.2.8v-.6l2.8-1h.1v8.3Z"/>
    <path class="cls-1" d="M77.7,42.6c0,1.2-.2,2-.6,2.7-.4.6-1.1.9-1.9.9s-1.4-.3-1.9-.9c-.4-.6-.7-1.5-.7-2.6v-1.5c0-1.2.2-2,.6-2.6.4-.6,1.1-.9,1.9-.9s1.4.3,1.9.9c.4.6.7,1.4.7,2.5v1.5ZM77,41.1c0-.9-.2-1.7-.5-2.1-.3-.5-.8-.7-1.4-.7s-1.1.2-1.4.7c-.3.5-.5,1.2-.5,2.1v1.6c0,.9.2,1.7.5,2.2.3.5.8.7,1.4.7s1.1-.2,1.4-.7c.3-.5.5-1.2.5-2.1v-1.6Z"/>
    <path class="cls-1" d="M86.1,43.7h-3.7l-.9,2.3h-.7l3.1-8.3h.7l3.1,8.3h-.7l-.9-2.3ZM82.6,43.1h3.3l-1.7-4.5-1.7,4.5Z"/>
    <path class="cls-1" d="M94.8,46h-.7l-4.7-7.1v7.1h-.7v-8.3h.7l4.8,7.1v-7.1h.7v8.3ZM93.6,35.7c0,.4-.1.7-.3.9-.2.2-.5.3-.8.3s-.6-.1-.8-.3c-.3-.2-.5-.3-.7-.3s-.3,0-.4.2c-.1.1-.2.3-.2.5h-.5c0-.4.1-.6.3-.9.2-.2.5-.3.8-.3s.3,0,.5,0,.2.1.4.2c.1,0,.2.2.3.2.1,0,.2,0,.4,0s.3,0,.4-.2c.1-.1.2-.3.2-.5h.5Z"/>
    <path class="cls-1" d="M102.7,42.3c0,.8-.1,1.4-.4,2-.3.6-.6,1-1.1,1.3s-1.1.5-1.7.5c-1,0-1.7-.3-2.3-1-.6-.7-.9-1.6-.9-2.8v-.8c0-.8.1-1.4.4-2s.6-1,1.1-1.3c.5-.3,1-.5,1.7-.5s1.2.2,1.7.5c.5.3.9.7,1.1,1.3s.4,1.2.4,1.9v1ZM102,41.4c0-1-.2-1.8-.7-2.3s-1.1-.8-1.8-.8-1.4.3-1.8.8c-.5.6-.7,1.4-.7,2.4v.9c0,1,.2,1.8.7,2.3.5.6,1.1.9,1.8.9s1.4-.3,1.8-.8.7-1.4.7-2.4v-.9Z"/>
    <path class="cls-1" d="M108.8,44c0-.5-.2-.8-.5-1.1-.3-.3-.9-.5-1.8-.8s-1.5-.5-1.9-.8c-.6-.4-.8-.9-.8-1.6s.3-1.1.8-1.5c.5-.4,1.2-.6,2-.6s1,.1,1.5.3c.4.2.8.5,1,.9s.4.8.4,1.3h-.7c0-.6-.2-1-.6-1.4-.4-.3-.9-.5-1.6-.5s-1.1.1-1.5.4c-.4.3-.6.7-.6,1.1s.2.8.5,1c.3.3.9.5,1.6.7.7.2,1.3.4,1.7.6.4.2.7.5.9.8.2.3.3.7.3,1.1,0,.7-.3,1.2-.8,1.6-.5.4-1.2.6-2.1.6s-1.1-.1-1.6-.3-.9-.5-1.1-.9-.4-.8-.4-1.3h.7c0,.6.2,1,.7,1.4.4.3,1,.5,1.7.5s1.2-.1,1.5-.4.6-.7.6-1.1Z"/>
  </g>
  <g>
    <path class="cls-1" d="M59.9,24.8C57,8.5,41.4-2.4,25.1.5,8.8,3.3-2,18.9.8,35.2c2.9,16.3,18.4,27.2,34.7,24.3,16.3-2.9,27.2-18.4,24.3-34.7ZM52.6,45.5c-4.2,5.9-10.4,9.9-17.5,11.2-7.1,1.3-14.3-.3-20.3-4.5-5.9-4.2-9.9-10.4-11.2-17.5-1.3-7.1.3-14.3,4.5-20.3,4.2-5.9,10.4-9.9,17.5-11.2,7.1-1.3,14.3.3,20.3,4.5,5.9,4.2,9.9,10.4,11.2,17.5,1.3,7.1-.3,14.3-4.5,20.3Z"/>
    <path class="cls-1" d="M35.3,22l-3.9.7c0,0-.2.1-.1.2l.9,5.3-9.2-4.4c0,0-.1,0-.2,0,0,0,0,0,0,.2l2.4,13.7c0,0,.1.2.2.1l3.9-.7c0,0,.2-.1.1-.2l-1-5.7,9.3,4.8s0,0,.1,0c0,0,0,0,0,0,0,0,0-.1,0-.2l-2.4-13.8c0,0-.1-.2-.2-.1Z"/>
    <path class="cls-1" d="M20.7,24.7c0,0-.1-.2-.2-.1l-3.9.7c0,0-.2.1-.1.2l1.3,7.4c.2,1.4-.4,2.4-1.7,2.7-1.3.2-2.3-.5-2.5-1.9l-1.3-7.4c0,0-.1-.1-.2-.1l-3.9.7c0,0-.2.1-.1.2l1.4,8c.6,3.6,3.5,5.5,7.4,4.8,3.8-.7,5.9-3.4,5.2-7l-1.4-8Z"/>
    <path class="cls-1" d="M43.8,20.2c-3.8.7-5.9,3.4-5.2,7.1l1.4,7.9c0,0,.1.2.2.1l3.9-.7c0,0,.2-.1.1-.2l-.5-2.6,4.2-.7.5,2.6c0,0,.1.2.2.1l3.9-.7c0,0,.2-.1.1-.2l-1.4-7.9c-.6-3.6-3.5-5.5-7.4-4.8ZM43.1,28.2l-.3-1.7c-.2-1.4.4-2.4,1.7-2.7,1.3-.2,2.3.5,2.5,1.9l.3,1.7-4.2.7Z"/>
  </g>
</svg>